<!-- Generated by IcoMoon.io -->
<svg version="1.1" xmlns="http://www.w3.org/2000/svg" width="25" height="25" fill="#00c853" viewBox="0 0 32 32">
    <title>rotate</title>
    <path d="M8 4.8l-0.534 6.933 6.933-0.534-2.633-2.633c1.254-0.708 2.725-1.1 4.233-1.1 4.692 0 8.533 3.841 8.533 8.533v0.734l1.8 1.834c0.213-0.854 0.334-1.713 0.334-2.566 0-5.866-4.8-10.666-10.666-10.666-2.133 0-4.113 0.621-5.766 1.7l-2.234-2.234zM5.667 13.433c-0.213 0.854-0.334 1.713-0.334 2.566 0 5.866 4.8 10.666 10.666 10.666 2.125 0 4.083-0.666 5.733-1.733l2.266 2.266 0.534-6.933-6.933 0.534 2.633 2.633c-1.25 0.708-2.725 1.1-4.233 1.1-4.692 0-8.533-3.841-8.533-8.533v-0.734l-1.799-1.832z"></path>
</svg>
